<?xml version="1.0" ?><svg id="Guidelines" viewBox="0 0 512 512" xmlns="http://www.w3.org/2000/svg"><defs><style>.cls-1{fill:#ffffff;}</style></defs><path class="cls-1" d="M256,290.32a50.48,50.48,0,0,1-50.42-50.42V187.09a50.42,50.42,0,0,1,100.84,0V239.9A50.48,50.48,0,0,1,256,290.32Zm0-132.51a29.31,29.31,0,0,0-29.28,29.28V239.9A29.31,29.31,0,0,0,256,269.18h0a29.31,29.31,0,0,0,29.28-29.28V187.09A29.31,29.31,0,0,0,256,157.81Z"/><path class="cls-1" d="M256,327.12A86.21,86.21,0,0,1,169.88,241V230.43H191V241a65,65,0,0,0,130,0V230.43h21.14V241A86.21,86.21,0,0,1,256,327.12Z"/><rect class="cls-1" height="69.35" width="21.14" x="245.43" y="305.98"/></svg>